<?xml version="1.0" encoding="UTF-8"?>
<svg width="1024px" height="1024px" viewBox="0 0 1024 1024" xmlns="http://www.w3.org/2000/svg" xmlns:xlink="http://www.w3.org/1999/xlink" version="1.1">
 <!-- Generated by Pixelmator Pro 2.3.3 -->
 <path id="Ellipse" d="M1024 512 C1024 229.23 794.77 0 512 0 229.23 0 0 229.23 0 512 0 794.77 229.23 1024 512 1024 794.77 1024 1024 794.77 1024 512 Z" fill="#000000" fill-opacity="1" stroke="none"/>
 <path id="Shape" d="M505.959 346.854 C491.412 339.963 481.859 336.217 475.344 334.083 468.83 331.95 458.854 329.246 453.176 328.075 447.498 326.904 438.048 325.417 432.176 324.77 426.304 324.124 415.366 323.608 407.869 323.623 400.372 323.638 389.813 324.194 384.404 324.859 378.995 325.523 370.954 326.974 366.535 328.082 362.116 329.189 354.954 331.432 350.62 333.065 346.286 334.698 339.311 337.822 335.12 340.007 330.929 342.192 323.595 346.915 318.821 350.503 314.048 354.091 306.953 360.488 303.055 364.718 299.157 368.949 293.538 376.031 290.568 380.455 287.598 384.88 283.111 392.586 280.597 397.579 278.083 402.573 274.443 410.898 272.509 416.079 270.574 421.261 267.636 430.9 265.979 437.5 264.322 444.1 262.057 455.35 260.946 462.5 259.471 471.99 258.762 482.905 258.322 502.925 257.844 524.642 258.063 533.792 259.375 546.889 260.287 555.986 262.193 569.07 263.612 575.964 265.03 582.859 267.952 593.87 270.105 600.432 272.258 606.995 276.254 617.042 278.984 622.757 281.715 628.473 286.811 637.504 290.309 642.825 293.806 648.146 299.948 655.999 303.956 660.275 307.964 664.551 315.087 670.934 319.784 674.459 324.48 677.984 332.413 682.893 337.412 685.367 342.41 687.842 350.018 691.043 354.317 692.481 358.617 693.918 366.363 695.978 371.532 697.057 376.701 698.136 387.149 699.438 394.75 699.949 403.038 700.506 413.611 700.521 421.163 699.986 428.089 699.495 437.973 698.414 443.128 697.584 448.283 696.754 456.977 694.911 462.45 693.489 467.922 692.066 476.94 689.127 482.489 686.958 488.039 684.788 496.345 681.192 500.949 678.965 505.552 676.739 509.648 675.274 510.052 675.709 510.456 676.144 514.602 690.17 519.267 706.878 L527.748 737.256 514.624 743.557 C507.406 747.023 495.425 751.875 488 754.341 480.575 756.806 469.325 759.971 463 761.375 456.675 762.778 446.275 764.606 439.888 765.438 433.501 766.27 420.226 767.134 410.388 767.359 400.55 767.584 389.8 767.586 386.5 767.364 383.2 767.142 375.115 766.277 368.534 765.442 361.953 764.606 352.503 763.038 347.534 761.957 342.565 760.876 333.55 758.392 327.5 756.438 321.45 754.483 310.604 750.013 303.397 746.505 296.191 742.996 285.616 736.981 279.897 733.138 274.179 729.295 265.4 722.559 260.389 718.168 255.379 713.777 247.989 706.321 243.969 701.6 239.949 696.878 234.312 689.749 231.442 685.758 228.572 681.766 223.661 674.031 220.528 668.568 217.394 663.106 212.787 654.106 210.289 648.568 207.791 643.031 203.595 631.975 200.966 624 198.336 616.025 195.035 604.325 193.63 598 192.225 591.675 190.391 582.542 189.553 577.705 188.715 572.868 187.371 562.518 186.567 554.705 185.762 546.892 184.806 533.075 184.443 524 184.061 514.464 184.265 500.114 184.926 490 185.556 480.375 186.974 466.2 188.079 458.5 189.184 450.8 191.406 438.725 193.018 431.667 194.629 424.609 198.194 412.108 200.94 403.887 203.686 395.666 208.67 383.218 212.015 376.225 215.36 369.232 220.208 359.908 222.789 355.505 225.369 351.102 230.828 343.002 234.919 337.504 239.01 332.006 246.889 322.844 252.428 317.144 257.968 311.444 265.875 304.053 270 300.719 274.125 297.386 281.271 292.194 285.88 289.181 290.49 286.169 298.492 281.55 303.663 278.917 308.835 276.284 317.213 272.54 322.283 270.597 327.352 268.654 335.52 265.915 340.434 264.511 345.348 263.107 354.306 261.069 360.341 259.982 366.376 258.896 378.593 257.487 387.49 256.852 399.696 255.981 407.942 255.979 421.083 256.846 430.662 257.479 442.949 258.67 448.386 259.494 453.824 260.318 463.949 262.384 470.886 264.085 477.824 265.785 487.775 268.755 493 270.684 498.225 272.612 507.365 276.481 513.312 279.281 523.56 284.106 524.091 284.505 523.505 286.936 523.165 288.346 519.996 299.29 516.463 311.256 512.931 323.222 509.122 336.126 508 339.933 L505.959 346.854 Z M477.5 573.464 C470.9 573.688 461.675 573.468 457 572.974 452.325 572.481 443.325 570.756 437 569.141 430.675 567.526 424.263 565.72 422.75 565.127 420.016 564.056 420 563.994 420 554.451 420 547.267 420.314 544.935 421.25 545.177 421.938 545.354 424.586 546.75 427.136 548.278 429.686 549.806 435.311 552.345 439.636 553.919 443.961 555.493 451.187 557.53 455.693 558.445 460.216 559.363 468.616 560.116 474.444 560.125 480.251 560.134 487.59 559.607 490.751 558.954 493.913 558.301 498.566 556.723 501.09 555.447 503.615 554.172 507.08 551.534 508.791 549.586 510.502 547.637 512.185 544.53 512.532 542.681 512.879 540.831 512.683 537.538 512.097 535.362 511.511 533.185 509.757 530.184 508.2 528.691 506.642 527.199 502.922 525.127 499.934 524.086 496.945 523.046 490.225 521.503 485 520.658 479.775 519.812 470.55 518.382 464.5 517.479 458.45 516.577 450.125 514.727 446 513.369 441.875 512.011 436.342 509.46 433.704 507.7 431.065 505.94 427.601 502.545 426.004 500.155 424.407 497.765 422.545 493.328 421.867 490.295 420.925 486.087 420.9 483.508 421.762 479.401 422.382 476.441 424.316 471.948 426.059 469.415 427.852 466.809 431.828 463.129 435.218 460.938 438.513 458.808 443.675 456.143 446.689 455.015 449.704 453.887 455.394 452.41 459.335 451.732 463.276 451.055 471.9 450.518 478.5 450.541 485.1 450.564 495.412 451.385 501.415 452.365 507.418 453.346 515.518 455.146 519.415 456.365 526.5 458.581 526.5 458.581 526.791 467.416 526.951 472.276 526.874 476.46 526.619 476.714 526.365 476.968 524.209 476.056 521.828 474.686 519.448 473.316 514.293 471.056 510.373 469.664 506.453 468.271 499.741 466.408 495.457 465.523 490.962 464.594 482.768 463.907 476.084 463.898 467.302 463.885 462.968 464.36 458.168 465.861 454.686 466.95 450.107 469.04 447.992 470.505 445.877 471.971 443.439 474.662 442.574 476.486 441.708 478.31 441 481.58 441 483.753 441 486.207 441.862 488.983 443.274 491.078 444.524 492.934 447.031 495.452 448.843 496.673 450.656 497.895 455.37 499.592 459.32 500.444 463.269 501.296 472.8 502.913 480.5 504.037 488.2 505.16 498.1 506.963 502.5 508.041 506.9 509.12 513.294 511.371 516.708 513.044 520.168 514.738 524.413 517.833 526.297 520.034 528.157 522.207 530.201 525.728 530.839 527.858 531.478 529.989 532 534.42 532 537.706 532 542.373 531.329 545.024 528.932 549.821 527.203 553.28 524.037 557.524 521.682 559.541 519.382 561.51 514.8 564.441 511.5 566.054 508.2 567.668 501.9 569.904 497.5 571.023 492.492 572.296 485.013 573.209 477.5 573.464 Z M757.548 573.459 C752.021 573.687 744.35 573.479 740.5 572.995 736.65 572.512 730.616 571.393 727.091 570.507 723.566 569.622 717.941 567.538 714.591 565.877 711.241 564.215 706.25 561.118 703.5 558.994 700.75 556.871 696.775 552.867 694.666 550.097 692.557 547.327 689.561 542.01 688.007 538.281 686.454 534.551 684.626 527.988 683.946 523.696 683.199 518.985 682.955 512.418 683.33 507.129 683.672 502.309 684.858 495.471 685.966 491.933 687.073 488.395 689.405 483.025 691.147 480 692.89 476.975 696.846 472.02 699.939 468.989 703.032 465.957 708.699 461.839 712.532 459.837 716.364 457.835 722.51 455.276 726.19 454.15 729.869 453.024 737.596 451.572 743.361 450.923 751.341 450.025 756.473 450.019 764.861 450.897 770.92 451.531 779.168 452.902 783.189 453.943 787.21 454.983 793.425 456.887 797 458.173 803.5 460.51 803.5 460.51 803.789 469.877 804.016 477.229 803.801 479.122 802.789 478.675 802.08 478.363 796.773 475.701 790.995 472.761 784.915 469.666 777.178 466.634 772.625 465.562 767.971 464.466 760.625 463.667 754.63 463.605 749.059 463.547 742 464.075 738.944 464.778 735.888 465.481 730.596 467.377 727.184 468.991 723.772 470.604 718.772 474.133 716.073 476.831 713.374 479.53 710 484.04 708.575 486.852 707.149 489.665 705.312 494.544 704.492 497.693 703.671 500.843 703 507.281 703 512 703 516.719 703.69 523.228 704.533 526.465 705.376 529.702 707.289 534.608 708.783 537.367 710.277 540.125 713.635 544.522 716.243 547.137 718.852 549.752 723.802 553.222 727.243 554.848 730.685 556.474 736.066 558.326 739.203 558.963 742.34 559.601 749.4 560.106 754.892 560.087 760.385 560.067 768.169 559.313 772.189 558.409 776.21 557.506 782.121 555.712 785.325 554.423 788.529 553.134 793.446 550.667 796.251 548.941 799.056 547.215 801.947 545.574 802.675 545.294 803.715 544.896 804 546.733 804 553.821 804 562.856 804 562.856 798.75 564.792 795.862 565.857 791.24 567.466 788.479 568.369 785.717 569.271 779.888 570.692 775.526 571.526 771.164 572.361 763.074 573.231 757.548 573.459 Z M564 572 L564 452 612 452 660 452 660 459 660 466 621.5 466 583 466 583 482.5 583 499 621.5 499 660 499 660 506 660 513 621.5 513 583 513 583 535.5 583 558 621.5 558 660 558 660 565 660 572 612 572 564 572 Z" fill="#ff0000" fill-opacity="1" stroke="none"/>
</svg>
